<svg id="Layer_1" data-name="Layer 1" xmlns="http://www.w3.org/2000/svg" viewBox="0 0 202 49"><defs><style>.cls-1{font-size:40.64px;font-family:BwNistaGeometricDEMO-ExtraBold, Bw Nista Geometric DEMO;font-weight:800;}.cls-1,.cls-4{fill:#00adff;}.cls-2{letter-spacing:0em;}.cls-3{letter-spacing:0.08em;}</style></defs><text class="cls-1" transform="translate(35.7 37.32)"><tspan class="cls-2">S</tspan><tspan x="28.86" y="0">m</tspan><tspan class="cls-3" x="67.55" y="0"> </tspan><tspan x="79.87" y="0">ch</tspan></text><path class="cls-4" d="M114.51,26.29h-7.1c-.31,0-.63,0-.94,0a.17.17,0,0,0-.12,0h-1.64c-.08,0-.12,0-.12.11,0,.77,0,1.54,0,2.31,0,1.36,0,2.71,0,4.06a5.27,5.27,0,0,0,.27,1.81A4.78,4.78,0,0,0,106,36.49a1.51,1.51,0,0,0,.23.21l.13.12a.18.18,0,0,0,.11.08l.1.1a5.29,5.29,0,0,0,1.63.81,4.94,4.94,0,0,0,3.11-.12,5,5,0,0,0,3.13-3.5,6.58,6.58,0,0,0,.15-1.66V26.39C114.62,26.31,114.6,26.29,114.51,26.29Zm-1,1.21c0,.79,0,1.58,0,2.37a.41.41,0,0,0,0,.11.14.14,0,0,0,0,.11,3.62,3.62,0,0,0,0,.57h0v1.85c0,.33,0,.66,0,1a3.88,3.88,0,0,1-1.27,2.39,3.92,3.92,0,0,1-4.9.27,3.86,3.86,0,0,1-1.63-3.26V27.49c0-.09,0-.11.11-.11h5c.88,0,1.76,0,2.64,0C113.56,27.38,113.52,27.45,113.52,27.5Z"/><path class="cls-4" d="M112.54,14.66a4.83,4.83,0,0,0-2.18-.9,5,5,0,0,0-4.61,1.77,4.94,4.94,0,0,0-1.11,2.5,13.34,13.34,0,0,0,0,1.79c0,1.1,0,2.19,0,3.29V25.3c0,.08,0,.12.11.12h1a.08.08,0,0,0,0-.08c0-.07,0-.09.1-.09s.42,0,.63,0,.06.11,0,.18h0c2.66,0,5.33,0,8,0,.1,0,.12,0,.12-.13V19.35a7,7,0,0,0-.2-2A4.94,4.94,0,0,0,112.54,14.66Zm-1.59.22,0,0c-.4.1-.81.17-1.21.29a4.8,4.8,0,0,0-2,1.12,4.08,4.08,0,0,0-1,1.95,9.37,9.37,0,0,0-.19,2.3v2.3c0,.41,0,.82,0,1.22a.38.38,0,0,0,0,.15.15.15,0,0,1,0,.1h-.75a.27.27,0,0,1,0-.09V19.91a9.93,9.93,0,0,1,.07-1.54A3.92,3.92,0,0,1,109,14.92a5.34,5.34,0,0,1,1.91-.09h0S111,14.85,111,14.88Z"/></svg>